<svg xmlns="http://www.w3.org/2000/svg" xmlns:xlink="http://www.w3.org/1999/xlink" viewBox="0 0 24 24" version="1.1">
<g id="surface1">
<path style=" " d="M 9 0 L 9 2 L 15 2 L 15 0 Z M 12 3 C 6.464844 3 2 7.464844 2 13 C 2 18.535156 6.464844 23 12 23 C 17.535156 23 22 18.535156 22 13 C 22 10.59375 21.160156 8.378906 19.75 6.65625 L 21.21875 5.21875 L 19.78125 3.78125 L 18.34375 5.25 C 16.621094 3.839844 14.40625 3 12 3 Z M 12 5 C 16.464844 5 20 8.535156 20 13 C 20 17.464844 16.464844 21 12 21 C 7.535156 21 4 17.464844 4 13 C 4 8.535156 7.535156 5 12 5 Z M 11 7 L 11 15 L 13 15 L 13 7 Z "></path>
</g>
</svg>